<svg aria-hidden="true" style="position: absolute; width: 0; height: 0; overflow: hidden;" version="1.1" xmlns="http://www.w3.org/2000/svg" xmlns:xlink="http://www.w3.org/1999/xlink">
<defs>
<symbol id="icon-Line" viewBox="0 0 1 32">
<path stroke-linejoin="miter" stroke-linecap="butt" stroke-miterlimit="4" stroke-width="0.5614" d="M0.561 0v32"></path>
</symbol>
<symbol id="icon-spoon-right" viewBox="0 0 128 32">
<path fill="#dcca87" style="fill: var(--color1, #dcca87)" d="M107.203 30.4c11.469 0 20.797-6.461 20.797-14.4s-9.328-14.4-20.8-14.4c-10.845 0-19.776 5.779-20.707 13.126h-14.966v-3.030h-71.526v8.608h71.53v-3.030h14.966c0.934 7.347 9.862 13.126 20.704 13.126zM68.768 17.754h-66.006v-3.507h66.006v3.507zM89.171 16c0-6.534 8.090-11.853 18.035-11.853 9.942 0 18.032 5.318 18.032 11.853s-8.090 11.853-18.035 11.853c-9.942 0-18.032-5.318-18.032-11.853z"></path>
</symbol>
<symbol id="icon-spoon-left" viewBox="0 0 142 32">
<path fill="#dcca87" style="fill: var(--color1, #dcca87)" d="M23.104 0c-12.74 0-23.104 7.179-23.104 16s10.364 16 23.104 16c12.053 0 21.973-6.421 23.012-14.585h16.629v3.367h79.477v-9.564h-79.477v3.367h-16.629c-1.038-8.164-10.958-14.585-23.012-14.585zM65.813 14.052h73.34v3.897h-73.34v-3.897zM43.143 16c0 7.26-8.988 13.17-20.039 13.17-11.047 0-20.036-5.909-20.036-13.17s8.985-13.17 20.036-13.17c11.051 0 20.039 5.909 20.039 13.17z"></path>
</symbol>
<symbol id="icon-Group-logo" viewBox="0 0 32 32">
<path fill="#fff" style="fill: var(--color1, #fff)" d="M21.431 13.918c0.992-1.002 1.24-2.38 0.553-3.074s-2.053-0.443-3.045 0.558c-0.938 0.947-1.211 2.232-0.656 2.955l-1.295 1.307-0.262-0.265-6.188 6.248 0.745 0.752 6.188-6.247-0.262-0.265 1.295-1.307c0.716 0.56 1.989 0.285 2.927-0.662zM17.012 16.171l-5.71 5.765-0.304-0.306 5.71-5.765 0.304 0.306zM18.625 14.236c-0.565-0.571-0.325-1.742 0.535-2.61s2.020-1.111 2.585-0.54 0.325 1.742-0.535 2.61c-0.86 0.868-2.020 1.111-2.585 0.54z"></path>
<path fill="#fff" style="fill: var(--color1, #fff)" d="M13.167 11.402c-0.991-1.003-2.354-1.254-3.040-0.559s-0.438 2.075 0.552 3.078c0.937 0.949 2.208 1.224 2.923 0.663l1.293 1.309-0.262 0.265 6.179 6.256 0.743-0.753-6.18-6.256-0.261 0.265-1.293-1.309c0.554-0.724 0.282-2.011-0.655-2.959zM15.395 15.87l5.702 5.773-0.303 0.307-5.702-5.773 0.303-0.307zM13.481 14.239c-0.565 0.572-1.723 0.329-2.582-0.541s-1.099-2.042-0.534-2.614c0.565-0.572 1.723-0.329 2.582 0.541s1.099 2.042 0.534 2.614z"></path>
<path fill="#dcca87" style="fill: var(--color2, #dcca87)" d="M15.803 2.657c-0.078 0-0.167-0.004-0.265-0.013-0.027-0.002-0.077-0.005-0.126-0.008l-0.016-0.001c-0.056-0.003-0.119-0.004-0.189-0.004l-0.311 0.004c-0.050 0.003-0.122 0.004-0.214 0.004-0.006 0-0.009-0.009-0.009-0.025s0.003-0.025 0.008-0.025c0.087 0 0.15-0.007 0.189-0.021 0.038-0.013 0.067-0.042 0.080-0.079l0-0.001c0.017-0.042 0.024-0.105 0.021-0.19v-1.949c-0.006-0.084-0.017-0.146-0.034-0.185-0.013-0.038-0.042-0.067-0.079-0.080l-0.001-0c-0.039-0.017-0.098-0.025-0.176-0.025-0.005 0-0.008-0.008-0.008-0.025s0.003-0.025 0.008-0.025l0.214 0.004c0.123 0.005 0.224 0.008 0.302 0.008 0.092 0 0.185-0.004 0.277-0.013 0.118-0.005 0.204-0.008 0.26-0.008 0.294 0 0.555 0.055 0.782 0.164 0.227 0.107 0.403 0.257 0.529 0.45s0.189 0.415 0.189 0.665c0 0.27-0.067 0.51-0.202 0.72-0.131 0.208-0.307 0.369-0.525 0.484-0.202 0.109-0.442 0.173-0.696 0.173-0.003 0-0.007 0-0.010-0h0.001zM15.766 2.573c0.196 0 0.367-0.046 0.512-0.139 0.146-0.095 0.258-0.233 0.336-0.413 0.081-0.18 0.122-0.396 0.122-0.648 0-0.216-0.035-0.421-0.105-0.615-0.068-0.195-0.184-0.359-0.334-0.483l-0.002-0.001c-0.151-0.126-0.345-0.189-0.58-0.189-0.112 0-0.188 0.021-0.227 0.063-0.039 0.039-0.059 0.11-0.059 0.21v1.895c0.003 0.115 0.027 0.198 0.071 0.248 0.048 0.048 0.136 0.072 0.265 0.072zM20.843 2.819c0.004-0.002 0.009-0.004 0.014-0.004 0.003 0 0.006 0.001 0.009 0.001l-0-0c0.008 0.002 0.015 0.007 0.022 0.015 0.007 0.005 0.009 0.009 0.005 0.010-0.074 0.155-0.145 0.341-0.201 0.534l-0.007 0.028c-0.007 0.021-0.015 0.036-0.026 0.045-0.011 0.006-0.028 0.005-0.052-0.002l-1.838-0.541c-0.011-0.003-0.014-0.013-0.009-0.029s0.011-0.023 0.019-0.021c0.081 0.024 0.14 0.034 0.179 0.031 0.040-0.001 0.075-0.023 0.095-0.055l0-0.001c0.025-0.034 0.049-0.092 0.073-0.176l0.548-1.871c0.024-0.081 0.034-0.142 0.032-0.184s-0.022-0.077-0.054-0.099l-0-0c-0.033-0.027-0.087-0.052-0.162-0.074-0.008-0.002-0.011-0.012-0.009-0.029 0.005-0.016 0.010-0.023 0.015-0.022l1.737 0.511c0.021 0.006 0.029 0.021 0.021 0.046l-0.148 0.535c-0.002 0.008-0.012 0.010-0.028 0.005-0.014-0.004-0.021-0.009-0.022-0.015-0.002-0.164-0.050-0.307-0.146-0.429-0.092-0.124-0.22-0.21-0.384-0.258l-0.077-0.023c-0.083-0.024-0.146-0.035-0.187-0.033-0.001-0-0.002-0-0.003-0-0.035 0-0.065 0.017-0.084 0.044l-0 0c-0.020 0.029-0.043 0.081-0.067 0.156l-0.242 0.824 0.504 0.148c0.137 0.040 0.245 0.046 0.323 0.016s0.134-0.098 0.165-0.206c0.003-0.011 0.014-0.013 0.033-0.008s0.026 0.015 0.022 0.028l-0.069 0.221c-0.031 0.083-0.064 0.194-0.092 0.307l-0.005 0.024-0.060 0.219c-0.004 0.013-0.014 0.018-0.030 0.013-0.009-0.003-0.016-0.006-0.023-0.011l0 0c-0.004-0.007-0.005-0.013-0.003-0.019 0.034-0.116 0.023-0.214-0.032-0.295-0.052-0.083-0.142-0.143-0.271-0.181l-0.496-0.146-0.267 0.913c-0.032 0.108-0.036 0.183-0.013 0.224 0.025 0.043 0.092 0.080 0.199 0.111l0.113 0.033c0.074 0.023 0.16 0.037 0.249 0.037 0.098 0 0.193-0.016 0.281-0.047l-0.006 0.002c0.182-0.064 0.335-0.17 0.453-0.308l0.001-0.001zM22.427 4.292c-0.005-0.003-0.003-0.012 0.006-0.026s0.016-0.020 0.021-0.017c0.073 0.047 0.13 0.075 0.17 0.085 0.009 0.002 0.019 0.004 0.030 0.004 0.030 0 0.057-0.011 0.077-0.030l-0 0c0.033-0.025 0.073-0.075 0.12-0.148l1.052-1.64c0.046-0.071 0.073-0.126 0.082-0.167 0.002-0.009 0.004-0.020 0.004-0.031 0-0.030-0.011-0.058-0.028-0.080l0 0c-0.024-0.035-0.069-0.075-0.135-0.117-0.007-0.005-0.006-0.014 0.003-0.028s0.017-0.019 0.024-0.014l0.167 0.113c0.101 0.072 0.183 0.128 0.246 0.169s0.151 0.094 0.263 0.159l0.183 0.113c0.005 0.003 0.002 0.012-0.007 0.026s-0.016 0.020-0.021 0.017c-0.073-0.047-0.13-0.074-0.172-0.081-0.008-0.002-0.017-0.003-0.026-0.003-0.031 0-0.059 0.011-0.081 0.029l0-0c-0.031 0.027-0.071 0.076-0.12 0.148l-1.040 1.622c-0.059 0.092-0.085 0.162-0.079 0.209 0.008 0.045 0.048 0.091 0.121 0.138l0.099 0.064c0.191 0.123 0.377 0.183 0.559 0.18 0.186-0.004 0.376-0.072 0.57-0.203 0.002-0 0.004-0.001 0.006-0.001 0.006 0 0.012 0.002 0.016 0.005l-0-0c0.007 0.004 0.013 0.011 0.017 0.021 0.005 0.007 0.007 0.013 0.004 0.018-0.121 0.151-0.245 0.322-0.36 0.498l-0.016 0.025c-0.023 0.035-0.052 0.042-0.087 0.019l-1.668-1.074zM25.745 6.93c-0.004-0.004 0.001-0.012 0.014-0.023s0.021-0.014 0.025-0.010c0.057 0.066 0.102 0.108 0.137 0.126 0.018 0.011 0.041 0.018 0.064 0.018 0.017 0 0.034-0.004 0.049-0.010l-0.001 0c0.039-0.015 0.091-0.051 0.157-0.108l1.47-1.277c0.061-0.053 0.101-0.099 0.12-0.138 0.013-0.019 0.020-0.043 0.020-0.069 0-0.017-0.003-0.033-0.009-0.048l0 0.001c-0.013-0.041-0.046-0.092-0.099-0.153-0.004-0.004-0-0.013 0.011-0.026 0.013-0.011 0.022-0.013 0.027-0.007l0.135 0.162c0.076 0.097 0.139 0.174 0.189 0.231 0.055 0.064 0.127 0.142 0.215 0.237l0.138 0.153c0.004 0.004-0.001 0.012-0.014 0.023s-0.021 0.014-0.025 0.010c-0.055-0.064-0.102-0.105-0.14-0.123-0.018-0.010-0.040-0.015-0.064-0.015-0.019 0-0.037 0.004-0.053 0.011l0.001-0c-0.037 0.017-0.089 0.053-0.157 0.108l-1.464 1.271c-0.063 0.055-0.105 0.101-0.126 0.137-0.010 0.020-0.017 0.044-0.017 0.070 0 0.018 0.003 0.034 0.008 0.050l-0-0.001c0.015 0.039 0.049 0.089 0.102 0.151 0.004 0.004-0.001 0.012-0.013 0.023s-0.021 0.014-0.025 0.010c-0.057-0.066-0.102-0.12-0.135-0.162l-0.197-0.235-0.199-0.223c-0.047-0.050-0.095-0.103-0.141-0.157l-0.005-0.006zM28.125 10.681c-0.129-0.283-0.187-0.555-0.172-0.814 0.015-0.257 0.094-0.484 0.235-0.681 0.144-0.198 0.335-0.352 0.575-0.462 0.232-0.106 0.467-0.14 0.707-0.101 0.242 0.037 0.462 0.139 0.66 0.304 0.201 0.164 0.361 0.377 0.48 0.637 0.055 0.12 0.099 0.248 0.133 0.384 0.037 0.134 0.056 0.244 0.058 0.33-0.001 0.025-0.005 0.043-0.013 0.052-0.015 0.015-0.032 0.028-0.051 0.037l-0.001 0.001-0.487 0.26c-0.010 0.005-0.020 0.001-0.028-0.011s-0.010-0.022-0.005-0.030c0.153-0.178 0.25-0.364 0.29-0.559 0.043-0.195 0.021-0.389-0.066-0.581-0.113-0.248-0.289-0.4-0.527-0.457-0.236-0.059-0.504-0.019-0.805 0.118-0.262 0.12-0.473 0.272-0.633 0.456s-0.258 0.38-0.295 0.589c-0.010 0.053-0.015 0.114-0.015 0.177 0 0.161 0.036 0.313 0.101 0.448l-0.003-0.006c0.042 0.092 0.087 0.156 0.134 0.193 0.050 0.036 0.11 0.048 0.179 0.038 0.073-0.009 0.169-0.041 0.289-0.095 0.125-0.057 0.21-0.11 0.256-0.159 0.035-0.036 0.057-0.086 0.057-0.141 0-0.013-0.001-0.025-0.003-0.038l0 0.001c-0.010-0.069-0.046-0.172-0.108-0.307-0.007-0.015-0-0.028 0.020-0.037 0.006-0.003 0.013-0.005 0.021-0.005 0 0 0 0 0 0v0c0.010 0.002 0.016 0.005 0.019 0.010 0.084 0.218 0.158 0.397 0.222 0.537 0.061 0.133 0.127 0.269 0.2 0.408 0.005 0.010-0.002 0.021-0.018 0.032s-0.027 0.011-0.032 0.001c-0.016-0.042-0.038-0.063-0.065-0.063s-0.082 0.019-0.164 0.057l-0.26 0.119c-0.115 0.053-0.193 0.093-0.235 0.122s-0.073 0.047-0.090 0.055c-0.015 0.007-0.027 0.009-0.034 0.006-0.006 0-0.015-0.007-0.027-0.020-0.22-0.294-0.386-0.563-0.496-0.805zM29.402 15.529c0.001 0.006-0.007 0.010-0.024 0.012s-0.025 0.001-0.026-0.005c-0.008-0.045-0.016-0.111-0.022-0.177l-0.001-0.015-0.041-0.313-0.047-0.299c-0.010-0.053-0.022-0.124-0.035-0.216-0.001-0.006 0.007-0.011 0.023-0.016 0.017-0.002 0.026 0.001 0.027 0.009 0.012 0.086 0.028 0.146 0.047 0.181 0.017 0.035 0.050 0.059 0.089 0.063l0.001 0c0.040 0.005 0.103 0.002 0.189-0.010l0.956-0.138-0.172-1.2-0.956 0.138c-0.083 0.012-0.143 0.028-0.18 0.047-0.035 0.021-0.061 0.055-0.071 0.094l-0 0.001c-0.008 0.041-0.007 0.103 0.005 0.186 0.001 0.008-0.007 0.014-0.023 0.016s-0.025-0.001-0.027-0.009c-0.013-0.092-0.022-0.163-0.026-0.213l-0.040-0.309-0.045-0.287c-0.010-0.052-0.022-0.122-0.034-0.208-0.001-0.008 0.006-0.014 0.023-0.016s0.026 0.001 0.027 0.009c0.012 0.083 0.028 0.142 0.046 0.176 0.017 0.035 0.050 0.059 0.089 0.063l0.001 0c0.041 0.008 0.104 0.006 0.19-0.006l1.925-0.277c0.117-0.014 0.191-0.042 0.221-0.083 0.034-0.042 0.042-0.12 0.026-0.234-0.001-0.008 0.006-0.014 0.023-0.016s0.026 0.001 0.027 0.009l0.025 0.201c0.012 0.123 0.023 0.222 0.034 0.297s0.028 0.176 0.052 0.303l0.035 0.212c0.001 0.006-0.007 0.010-0.024 0.012s-0.025 0.001-0.026-0.005c-0.012-0.083-0.029-0.143-0.051-0.18-0.021-0.035-0.057-0.060-0.098-0.067l-0.001-0c-0.040-0.005-0.102-0.004-0.186 0.005l-0.844 0.122 0.172 1.196 0.844-0.122c0.119-0.017 0.195-0.047 0.229-0.088 0.034-0.039 0.043-0.116 0.027-0.229-0.001-0.006 0.007-0.011 0.023-0.016 0.016-0.002 0.025 0.001 0.027 0.009l0.025 0.205c0.012 0.123 0.024 0.224 0.035 0.301 0.011 0.075 0.028 0.173 0.051 0.295l0.035 0.212c0.001 0.008-0.006 0.014-0.023 0.016s-0.026-0.001-0.027-0.009c-0.012-0.084-0.029-0.143-0.051-0.18-0.019-0.033-0.051-0.057-0.089-0.064l-0.001-0c-0.041-0.008-0.103-0.009-0.187-0.003l-1.925 0.277c-0.080 0.012-0.14 0.028-0.179 0.051-0.035 0.024-0.060 0.060-0.070 0.103l-0 0.001c-0.008 0.044-0.006 0.106 0.006 0.186zM29.231 17.307c0.001-0.008 0.010-0.011 0.027-0.009s0.025 0.006 0.024 0.012c-0.017 0.117-0.022 0.202-0.016 0.257 0.006 0.058 0.027 0.099 0.063 0.124 0.039 0.025 0.1 0.044 0.183 0.056l1.925 0.277c0.097 0.017 0.162 0.013 0.197-0.010 0.037-0.023 0.062-0.073 0.073-0.151l0.008-0.054c0.014-0.094-0.003-0.192-0.052-0.292-0.049-0.106-0.118-0.195-0.202-0.266l-0.001-0.001c-0.084-0.075-0.186-0.131-0.298-0.162l-0.005-0.001c-0.005-0.001-0.007-0.008-0.005-0.022 0.001-0.009 0.004-0.017 0.008-0.025l-0 0c0.006-0.005 0.011-0.006 0.013-0.002 0.103 0.029 0.376 0.090 0.818 0.182 0.008 0.001 0.012 0.009 0.010 0.022-0.001 0.008-0.004 0.015-0.007 0.021l0-0c-0.004 0.008-0.009 0.011-0.014 0.011-0.058-0.009-0.096 0.050-0.114 0.175-0.030 0.139-0.077 0.426-0.119 0.715l-0.015 0.129c-0.022 0.153-0.044 0.324-0.065 0.514l-0.038 0.292c-0.013 0.092-0.016 0.159-0.008 0.203s0.032 0.074 0.072 0.091c0.008 0.007 0.009 0.017 0.004 0.030-0.002 0.017-0.009 0.023-0.020 0.018-0.016-0.008-0.171-0.040-0.327-0.070l-0.131-0.021c-0.182-0.035-0.305-0.055-0.369-0.061-0.008-0.001-0.011-0.010-0.009-0.027 0.003-0.022 0.010-0.033 0.021-0.031 0.030 0.005 0.064 0.007 0.098 0.007 0.082 0 0.161-0.015 0.234-0.043l-0.005 0.002c0.105-0.037 0.194-0.098 0.263-0.178l0.001-0.001c0.071-0.080 0.114-0.173 0.129-0.279l0.008-0.054c0.008-0.056 0.007-0.097-0.003-0.124-0.011-0.024-0.032-0.041-0.065-0.052-0.042-0.013-0.095-0.025-0.149-0.034l-0.008-0.001-1.918-0.272c-0.086-0.012-0.149-0.013-0.191-0.002-0.042 0.014-0.073 0.046-0.094 0.097s-0.041 0.136-0.058 0.255c-0.001 0.008-0.010 0.011-0.027 0.009s-0.024-0.008-0.023-0.016c0.015-0.103 0.028-0.183 0.039-0.241l0.059-0.379 0.047-0.359c0.006-0.062 0.017-0.148 0.033-0.259zM26.303 24.433c0.004-0.004 0.012-0.001 0.025 0.010s0.017 0.019 0.014 0.023c-0.057 0.066-0.092 0.117-0.105 0.154-0.006 0.014-0.010 0.031-0.010 0.048 0 0.024 0.007 0.046 0.018 0.065l-0-0.001c0.021 0.036 0.064 0.083 0.129 0.14l1.47 1.276c0.061 0.053 0.112 0.087 0.153 0.099 0.041 0.017 0.080 0.015 0.116-0.005 0.038-0.019 0.084-0.059 0.137-0.12 0.004-0.004 0.013-0.002 0.027 0.007 0.013 0.011 0.016 0.020 0.011 0.026l-0.141 0.157c-0.085 0.090-0.152 0.163-0.202 0.22-0.055 0.064-0.123 0.146-0.203 0.247l-0.132 0.159c-0.003 0.004-0.012 0.001-0.025-0.010s-0.017-0.019-0.014-0.023c0.055-0.064 0.089-0.116 0.102-0.157 0.005-0.014 0.008-0.029 0.008-0.045 0-0.026-0.007-0.050-0.019-0.071l0 0.001c-0.022-0.034-0.065-0.081-0.129-0.14l-1.464-1.271c-0.064-0.055-0.115-0.090-0.154-0.105-0.015-0.005-0.032-0.008-0.049-0.008-0.025 0-0.049 0.006-0.070 0.017l0.001-0c-0.036 0.020-0.081 0.061-0.134 0.123-0.003 0.004-0.012 0.001-0.025-0.010s-0.017-0.019-0.013-0.023c0.057-0.066 0.104-0.118 0.141-0.156l0.204-0.23 0.192-0.229c0.033-0.042 0.079-0.098 0.14-0.168zM23.299 30.283c-0.007 0.005-0.015-0-0.024-0.014s-0.010-0.024-0.003-0.028c0.097-0.062 0.154-0.146 0.173-0.252 0.017-0.104-0.010-0.213-0.081-0.328l-1.168-1.83c-0.007-0.005-0.005-0.015 0.006-0.029 0.008-0.016 0.020-0.029 0.035-0.038l0-0c0.024-0.015 0.043-0.018 0.060-0.008l2.675 0.909-0.907-1.423c-0.070-0.115-0.156-0.186-0.258-0.215s-0.201-0.010-0.3 0.053c-0.009 0.006-0.019 0.002-0.028-0.012s-0.009-0.024 0-0.030c0.066-0.043 0.117-0.074 0.154-0.094l0.225-0.14 0.21-0.14c0.039-0.028 0.094-0.066 0.167-0.113 0.009-0.006 0.019-0.002 0.028 0.012s0.009 0.024-0.001 0.030c-0.099 0.064-0.155 0.147-0.17 0.249-0.016 0.104 0.011 0.213 0.081 0.328l0.994 1.557c0.117 0.032 0.212 0.045 0.286 0.041 0.071-0.003 0.135-0.022 0.192-0.059 0.005-0.003 0.012 0.002 0.021 0.017s0.011 0.023 0.006 0.026l-0.193 0.119c-0.039 0.022-0.091 0.053-0.154 0.094s-0.116 0.076-0.157 0.106c-0.043 0.031-0.072 0.051-0.086 0.060-0.019 0.012-0.036 0.017-0.052 0.013-0.028-0.005-0.052-0.015-0.074-0.029l0.001 0c-0.039-0.018-0.092-0.039-0.146-0.058l-0.014-0.004-2.122-0.715 0.793 1.251c0.070 0.115 0.156 0.187 0.257 0.215 0.099 0.030 0.199 0.012 0.3-0.053 0.009-0.006 0.019-0.002 0.028 0.012s0.009 0.024-0.001 0.030l-0.14 0.085c-0.107 0.061-0.186 0.109-0.264 0.159l0.022-0.013c-0.050 0.032-0.117 0.079-0.204 0.141l-0.171 0.115zM14.955 30.038c-0.005 0.005-0.012 0.008-0.020 0.008-0 0-0 0-0.001 0h0c-0.009-0-0.018-0.003-0.025-0.008l0 0c-0.009-0.003-0.011-0.006-0.009-0.009 0.027-0.173 0.042-0.373 0.042-0.576 0-0.008-0-0.016-0-0.023v0.001c0-0.022 0.004-0.039 0.012-0.050 0.009-0.009 0.025-0.013 0.050-0.013h1.916c0.011 0 0.017 0.009 0.017 0.025s-0.004 0.025-0.013 0.025c-0.084 0-0.144 0.007-0.181 0.021-0.037 0.012-0.066 0.042-0.075 0.079l-0 0.001c-0.014 0.039-0.021 0.102-0.021 0.189v1.95c0 0.084 0.007 0.146 0.021 0.185s0.041 0.066 0.080 0.080c0.039 0.017 0.098 0.025 0.176 0.025 0.008 0 0.014 0.009 0.017 0.025 0 0.017-0.003 0.025-0.009 0.025h-1.81c-0.023 0-0.034-0.013-0.034-0.038l-0.008-0.556c0-0.008 0.008-0.012 0.025-0.012 0.014 0 0.023 0.003 0.025 0.008 0.048 0.157 0.135 0.281 0.261 0.371 0.123 0.093 0.27 0.139 0.441 0.139h0.080c0.087 0 0.15-0.007 0.189-0.021 0.034-0.009 0.061-0.034 0.071-0.067l0-0.001c0.011-0.034 0.018-0.090 0.021-0.168v-0.859h-0.525c-0.143 0-0.248 0.025-0.315 0.076s-0.101 0.132-0.101 0.244c0 0.011-0.010 0.017-0.029 0.017s-0.029-0.007-0.029-0.021l0.004-0.231c0.003-0.052 0.004-0.112 0.004-0.173s-0.002-0.121-0.005-0.181l0 0.008-0.004-0.227c0-0.014 0.008-0.021 0.025-0.021 0.008 0 0.017 0.002 0.025 0.004 0.006 0.006 0.008 0.011 0.008 0.017 0 0.121 0.038 0.212 0.114 0.274 0.073 0.064 0.176 0.097 0.311 0.097h0.517v-0.952c0-0.112-0.017-0.185-0.050-0.219-0.036-0.034-0.111-0.050-0.223-0.050h-0.118c-0.182 0-0.348 0.052-0.5 0.156-0.151 0.108-0.27 0.252-0.346 0.419l-0.003 0.007zM10.027 30.933c-0.014-0.004-0.018-0.014-0.013-0.030s0.014-0.022 0.027-0.018c0.1 0.029 0.195 0.027 0.287-0.008 0.089-0.035 0.191-0.131 0.307-0.287l1.364-1.815c0.012-0.011 0.034-0.012 0.066-0.002 0.015 0.004 0.027 0.011 0.038 0.020l-0-0c0.013 0.007 0.020 0.013 0.021 0.019l0.363 2.481c0.017 0.122 0.042 0.21 0.076 0.264 0.033 0.057 0.087 0.096 0.162 0.118 0.008 0.002 0.010 0.012 0.005 0.028s-0.010 0.023-0.015 0.022l-0.212-0.067c-0.040-0.016-0.11-0.040-0.181-0.063l-0.030-0.008c-0.102-0.030-0.218-0.061-0.349-0.094l-0.199-0.054c-0.013-0.004-0.018-0.014-0.013-0.030s0.014-0.022 0.027-0.018c0.151 0.044 0.238 0.025 0.262-0.059 0.009-0.030 0.010-0.073 0.003-0.131l-0.269-1.892-0.982 1.335c-0.039 0.053-0.065 0.101-0.077 0.144-0.025 0.084-0.012 0.157 0.036 0.221 0.048 0.067 0.122 0.115 0.224 0.145 0.011 0.003 0.014 0.013 0.009 0.029s-0.012 0.023-0.023 0.019l-0.204-0.064c-0.117-0.040-0.224-0.075-0.32-0.103-0.054-0.016-0.122-0.033-0.204-0.051l-0.187-0.050zM7.543 27.273c-0.002 0-0.004 0.001-0.006 0.001-0.006 0-0.012-0.002-0.016-0.005l0 0c-0.007-0.005-0.013-0.012-0.017-0.021l-0-0c-0.006-0.007-0.007-0.011-0.003-0.012 0.125-0.143 0.243-0.299 0.348-0.465l0.009-0.016c0.009-0.016 0.022-0.028 0.037-0.035l0-0c0.012-0.002 0.028 0.003 0.049 0.017l1.612 1.038c0.009 0.006 0.010 0.016 0.001 0.030s-0.017 0.019-0.024 0.014c-0.071-0.046-0.125-0.072-0.163-0.080-0.009-0.002-0.019-0.004-0.029-0.004-0.030 0-0.057 0.011-0.077 0.030l0-0c-0.033 0.025-0.073 0.075-0.12 0.148l-1.052 1.64c-0.046 0.071-0.073 0.127-0.082 0.167-0.002 0.009-0.004 0.020-0.004 0.031 0 0.030 0.011 0.058 0.028 0.080l-0-0c0.024 0.035 0.069 0.074 0.135 0.117 0.007 0.005 0.007 0.015 0 0.030-0.009 0.014-0.016 0.020-0.021 0.017l-1.523-0.981c-0.019-0.012-0.021-0.029-0.008-0.050l0.293-0.472c0.004-0.007 0.014-0.006 0.028 0.003 0.012 0.008 0.017 0.015 0.017 0.021-0.045 0.158-0.038 0.309 0.019 0.453 0.054 0.145 0.152 0.263 0.296 0.356l0.067 0.043c0.073 0.047 0.13 0.075 0.171 0.085 0.037 0.010 0.069 0.004 0.096-0.018s0.064-0.066 0.109-0.13l0.463-0.722-0.442-0.285c-0.12-0.077-0.222-0.113-0.306-0.107s-0.156 0.056-0.217 0.151c-0.006 0.009-0.017 0.009-0.034-0.002s-0.021-0.022-0.013-0.034l0.128-0.193c0.058-0.081 0.12-0.176 0.177-0.273l0.009-0.017 0.119-0.194c0.008-0.012 0.018-0.013 0.033-0.004 0.007 0.005 0.014 0.011 0.019 0.017l0 0c0.002 0.008 0.001 0.014-0.002 0.019-0.065 0.102-0.082 0.199-0.052 0.292 0.026 0.094 0.096 0.177 0.209 0.25l0.435 0.28 0.513-0.8c0.060-0.094 0.086-0.165 0.076-0.212-0.012-0.048-0.066-0.103-0.16-0.163l-0.099-0.064c-0.133-0.088-0.297-0.14-0.473-0.14-0.011 0-0.022 0-0.034 0.001l0.002-0c-0.196 0.009-0.375 0.071-0.527 0.171l0.004-0.002zM4.847 23.651c-0.005-0.006-0.002-0.015 0.011-0.026 0.011-0.013 0.020-0.016 0.027-0.007l0.451 0.522c0.044 0.051 0.036 0.213-0.023 0.488-0.063 0.274-0.189 0.649-0.378 1.125 0.066 0.046 0.13 0.106 0.193 0.178 0.009 0.011 0.019 0.026 0.029 0.047l0.752-0.654c0.063-0.051 0.106-0.096 0.129-0.134 0.010-0.020 0.017-0.044 0.017-0.070 0-0.018-0.003-0.034-0.008-0.050l0 0.001c-0.017-0.041-0.053-0.093-0.108-0.157-0.007-0.009-0.005-0.018 0.008-0.029 0.011-0.013 0.020-0.016 0.027-0.007 0.062 0.072 0.109 0.128 0.14 0.168l0.2 0.238 0.21 0.236c0.039 0.041 0.089 0.097 0.152 0.169 0.007 0.009 0.006 0.019-0.005 0.032-0.013 0.011-0.023 0.012-0.030 0.004-0.061-0.070-0.111-0.117-0.151-0.142-0.042-0.023-0.082-0.027-0.121-0.012-0.043 0.015-0.096 0.048-0.159 0.099l-1.47 1.277c-0.064 0.055-0.105 0.102-0.123 0.14-0.011 0.018-0.017 0.040-0.017 0.063 0 0.019 0.004 0.037 0.012 0.054l-0-0.001c0.015 0.043 0.050 0.097 0.107 0.163 0.007 0.009 0.005 0.018-0.008 0.029s-0.023 0.012-0.030 0.004l-0.142-0.171c-0.077-0.097-0.14-0.175-0.192-0.235-0.062-0.072-0.135-0.147-0.216-0.225-0.041-0.041-0.081-0.082-0.119-0.125l-0.003-0.003c-0.185-0.214-0.289-0.405-0.311-0.572-0.024-0.169 0.027-0.308 0.152-0.416 0.091-0.079 0.206-0.125 0.343-0.137 0.027-0.003 0.058-0.004 0.090-0.004 0.118 0 0.231 0.021 0.336 0.060l-0.007-0.002c0.13-0.403 0.224-0.729 0.281-0.98 0.054-0.251 0.078-0.45 0.072-0.598-0.009-0.148-0.049-0.262-0.118-0.343zM5.069 26.054c-0.021-0.038-0.044-0.071-0.071-0.101l0 0c-0.121-0.14-0.237-0.212-0.348-0.216-0.113-0.006-0.241 0.053-0.385 0.178-0.15 0.13-0.235 0.256-0.253 0.376-0.022 0.12 0.003 0.222 0.077 0.307 0.050 0.057 0.088 0.093 0.114 0.107 0.025 0.016 0.055 0.016 0.089 0 0.031-0.016 0.082-0.053 0.154-0.111l0.622-0.541zM0.925 21.541c-0.006-0.013-0.001-0.023 0.014-0.030s0.026-0.004 0.032 0.009c0.041 0.089 0.114 0.159 0.22 0.209 0.102 0.049 0.243 0.080 0.422 0.094l0.901 0.050 0.89-0.407c0.079-0.036 0.133-0.069 0.163-0.098 0.022-0.025 0.036-0.058 0.036-0.094 0-0.008-0.001-0.016-0.002-0.024l0 0.001c-0.006-0.047-0.030-0.116-0.072-0.208-0.005-0.010 0.001-0.019 0.016-0.026s0.025-0.005 0.030 0.005c0.041 0.089 0.071 0.159 0.091 0.209l0.134 0.304 0.149 0.316c0.026 0.050 0.059 0.118 0.098 0.205 0.005 0.010-0.001 0.019-0.016 0.026s-0.025 0.005-0.030-0.005c-0.042-0.092-0.079-0.157-0.112-0.194-0.035-0.036-0.074-0.054-0.116-0.053-0.044-0.002-0.104 0.017-0.179 0.054l-0.835 0.387-0.647 1.032c-0.066 0.104-0.108 0.195-0.126 0.271-0.019 0.073-0.015 0.138 0.010 0.194 0.005 0.010-0.001 0.019-0.016 0.026-0.014 0.010-0.023 0.011-0.026 0.003l-0.087-0.201c-0.040-0.106-0.071-0.178-0.102-0.249l0.013 0.031c-0.067-0.146-0.113-0.239-0.161-0.331l0.022 0.047-0.093-0.194c-0.004-0.008-0-0.014 0.010-0.018 0.005-0.002 0.011-0.004 0.018-0.004 0.003 0 0.006 0 0.009 0.001l-0-0c0.006 0 0.011 0.003 0.013 0.008 0.030 0.066 0.057 0.113 0.082 0.139 0.023 0.023 0.046 0.030 0.069 0.019s0.046-0.037 0.071-0.078l0.617-0.977-0.864-0.040c-0.061 0-0.112 0.010-0.153 0.029-0.055 0.023-0.096 0.069-0.113 0.125l-0 0.001c-0.018 0.055-0.010 0.119 0.023 0.193 0.004 0.010-0.001 0.019-0.016 0.026s-0.025 0.007-0.028-0.001l-0.090-0.209c-0.062-0.158-0.105-0.256-0.149-0.353l0.022 0.055c-0.028-0.060-0.053-0.108-0.080-0.154l0.005 0.009-0.063-0.128zM1.334 13.612c0.062-0.232 0.166-0.41 0.314-0.533 0.145-0.124 0.312-0.172 0.5-0.145 0.147 0.021 0.275 0.088 0.372 0.185l0 0c0.104 0.103 0.18 0.235 0.228 0.395 0.045 0.16 0.054 0.332 0.027 0.519-0.011 0.078-0.028 0.166-0.051 0.265-0.009 0.038-0.018 0.087-0.029 0.145-0.011 0.055-0.021 0.117-0.031 0.187l-0.039 0.301c-0.005 0.053-0.014 0.127-0.028 0.221-0.001 0.005-0.009 0.007-0.026 0.005s-0.025-0.007-0.024-0.012c0.011-0.080 0.013-0.141 0.005-0.182-0.009-0.042-0.035-0.078-0.070-0.099l-0.001-0c-0.036-0.022-0.096-0.039-0.179-0.051l-1.925-0.278c-0.080-0.012-0.141-0.012-0.182-0.001-0.042 0.007-0.077 0.034-0.095 0.071l-0 0.001c-0.022 0.036-0.039 0.095-0.051 0.176-0.001 0.006-0.009 0.007-0.026 0.005s-0.024-0.007-0.024-0.012l0.036-0.22c0.023-0.121 0.040-0.22 0.051-0.295 0.011-0.078 0.019-0.159 0.022-0.243 0.001-0.028 0.004-0.070 0.010-0.126s0.011-0.105 0.017-0.147c0.037-0.261 0.112-0.456 0.224-0.585 0.112-0.131 0.256-0.184 0.43-0.159 0.133 0.019 0.247 0.081 0.343 0.185s0.163 0.248 0.202 0.429zM0.209 13.816c-0.011 0.081 0 0.139 0.034 0.175s0.104 0.062 0.21 0.077l0.79 0.114 0.029-0.17c0.021-0.15-0.016-0.273-0.112-0.369-0.099-0.099-0.232-0.161-0.398-0.185-0.158-0.023-0.284-0.003-0.378 0.060-0.096 0.060-0.154 0.159-0.174 0.298zM2.674 14.091c0.029-0.197 0.001-0.349-0.083-0.454s-0.221-0.172-0.413-0.2c-0.213-0.031-0.39-0.002-0.53 0.085s-0.226 0.241-0.257 0.461c-0.012 0.080-0.019 0.153-0.023 0.218l1.002 0.144c0.097 0.014 0.167 0.006 0.212-0.025s0.075-0.107 0.092-0.229zM3.641 10.841c-0.002 0.005-0.011 0.004-0.026-0.003s-0.022-0.013-0.019-0.018c0.036-0.079 0.055-0.138 0.058-0.177 0-0.004 0.001-0.009 0.001-0.014 0-0.036-0.015-0.069-0.040-0.092l-0-0c-0.030-0.029-0.084-0.062-0.163-0.098l-1.769-0.81c-0.074-0.034-0.132-0.051-0.175-0.052-0.005-0.001-0.012-0.001-0.018-0.001-0.036 0-0.068 0.015-0.091 0.039l-0 0c-0.032 0.029-0.064 0.080-0.098 0.154-0.002 0.005-0.012 0.005-0.028 0.001-0.015-0.007-0.021-0.014-0.018-0.022l0.091-0.19c0.056-0.11 0.1-0.199 0.131-0.268 0.035-0.077 0.077-0.175 0.125-0.295l0.082-0.189c0.002-0.005 0.011-0.004 0.026 0.003s0.022 0.013 0.020 0.018c-0.035 0.077-0.053 0.136-0.054 0.179-0 0.002-0 0.004-0 0.007 0 0.040 0.017 0.076 0.043 0.101l0 0c0.031 0.027 0.085 0.059 0.163 0.098l1.762 0.806c0.076 0.035 0.135 0.054 0.177 0.058 0.002 0 0.004 0 0.006 0 0.041 0 0.078-0.016 0.106-0.042l-0 0c0.029-0.030 0.060-0.082 0.094-0.156 0.002-0.005 0.011-0.004 0.026 0.003s0.022 0.013 0.019 0.018c-0.036 0.079-0.066 0.142-0.091 0.19l-0.131 0.278-0.12 0.274c-0.020 0.050-0.048 0.117-0.087 0.201zM5.474 7.71c-0.005 0.007-0.014 0.004-0.027-0.007s-0.017-0.019-0.014-0.023c0.077-0.089 0.128-0.158 0.152-0.208 0.026-0.051 0.031-0.098 0.014-0.138-0.019-0.043-0.060-0.091-0.124-0.147l-1.47-1.277c-0.072-0.067-0.129-0.099-0.171-0.098-0.044-0.001-0.091 0.029-0.142 0.088l-0.036 0.042c-0.062 0.072-0.101 0.163-0.115 0.274-0.005 0.032-0.007 0.069-0.007 0.107 0 0.081 0.013 0.16 0.036 0.234l-0.002-0.005c0.032 0.113 0.088 0.213 0.167 0.301 0.004 0.004 0.002 0.011-0.007 0.021-0.006 0.006-0.012 0.012-0.019 0.016l-0 0c-0.008 0.001-0.012-0.001-0.012-0.005-0.071-0.080-0.268-0.279-0.591-0.596-0.006-0.005-0.005-0.014 0.004-0.024 0.005-0.006 0.010-0.010 0.017-0.013l0-0c0.007-0.005 0.013-0.005 0.018-0.001 0.045 0.039 0.108 0.010 0.191-0.085 0.155-0.166 0.344-0.379 0.568-0.638 0.101-0.117 0.212-0.249 0.332-0.397l0.189-0.226c0.061-0.070 0.099-0.126 0.116-0.167 0.007-0.014 0.011-0.031 0.011-0.048 0-0.025-0.008-0.049-0.022-0.068l0 0c-0.003-0.010 0.002-0.019 0.013-0.028 0.011-0.013 0.020-0.014 0.026-0.005 0.088 0.087 0.2 0.196 0.336 0.325 0.134 0.128 0.226 0.212 0.277 0.252 0.006 0.005 0.004 0.015-0.007 0.027-0.015 0.017-0.026 0.022-0.035 0.014-0.080-0.071-0.18-0.123-0.289-0.148l-0.004-0.001c-0.044-0.011-0.094-0.018-0.145-0.018-0.062 0-0.121 0.009-0.177 0.027l0.004-0.001c-0.103 0.029-0.19 0.084-0.259 0.165l-0.036 0.042c-0.037 0.042-0.058 0.078-0.064 0.106-0.004 0.026 0.005 0.053 0.026 0.079 0.020 0.024 0.057 0.062 0.113 0.114l1.466 1.268c0.066 0.057 0.119 0.092 0.159 0.105 0.043 0.011 0.087 0.001 0.132-0.030s0.107-0.092 0.186-0.183c0.006-0.006 0.015-0.004 0.027 0.007s0.016 0.020 0.011 0.026c-0.068 0.078-0.122 0.139-0.163 0.182l-0.254 0.287-0.233 0.277c-0.038 0.048-0.094 0.115-0.167 0.2zM9.211 3.662c0.002-0.008 0.006-0.015 0.013-0.019l0-0c0.007-0.004 0.015-0.007 0.024-0.007 0.001 0 0.001 0 0.002 0h-0c0.009-0.002 0.012-0.001 0.012 0.003 0.075 0.169 0.171 0.344 0.287 0.526 0.012 0.019 0.018 0.035 0.017 0.049-0.002 0.012-0.014 0.024-0.036 0.038l-1.612 1.038c-0.009 0.006-0.019 0.002-0.028-0.012s-0.010-0.024-0.003-0.028c0.071-0.045 0.118-0.084 0.141-0.115 0.016-0.020 0.026-0.045 0.026-0.073 0-0.013-0.002-0.025-0.006-0.036l0 0.001c-0.009-0.041-0.037-0.098-0.084-0.171l-1.052-1.64c-0.046-0.071-0.085-0.119-0.118-0.145-0.021-0.017-0.049-0.028-0.079-0.028-0.011 0-0.022 0.001-0.032 0.004l0.001-0c-0.042 0.007-0.096 0.032-0.162 0.075-0.007 0.004-0.016 0-0.028-0.012-0.009-0.014-0.011-0.023-0.007-0.026l1.523-0.981c0.019-0.012 0.035-0.008 0.049 0.014l0.307 0.463c0.004 0.007-0 0.015-0.014 0.024-0.012 0.008-0.020 0.010-0.026 0.007-0.125-0.106-0.265-0.163-0.419-0.171-0.153-0.011-0.302 0.030-0.446 0.122l-0.067 0.043c-0.073 0.047-0.122 0.087-0.148 0.12-0.017 0.018-0.027 0.042-0.027 0.069 0 0.009 0.001 0.018 0.004 0.027l-0-0.001c0.009 0.034 0.033 0.085 0.073 0.153l0.463 0.723 0.442-0.284c0.12-0.077 0.195-0.156 0.224-0.235s0.014-0.165-0.047-0.26c-0.006-0.009-0.001-0.020 0.016-0.030s0.028-0.010 0.036 0.002l0.121 0.197c0.066 0.115 0.128 0.209 0.194 0.301l-0.007-0.011 0.126 0.189c0.008 0.012 0.004 0.022-0.010 0.031-0.007 0.004-0.015 0.008-0.023 0.010l-0.001 0c-0.008-0.002-0.013-0.005-0.016-0.010-0.065-0.102-0.146-0.158-0.243-0.169-0.096-0.015-0.201 0.014-0.313 0.087l-0.435 0.28 0.513 0.8c0.060 0.094 0.114 0.147 0.16 0.157 0.049 0.009 0.121-0.018 0.215-0.078l0.099-0.064c0.15-0.096 0.266-0.234 0.335-0.396l0.002-0.006c0.048-0.115 0.076-0.25 0.076-0.39 0-0.055-0.004-0.109-0.013-0.162l0.001 0.006z"></path>
</symbol>
<symbol id="icon-Kevin-Luo" viewBox="0 0 83 32">
<path fill="#aaa" style="fill: var(--color1, #aaa)" d="M23.817 8.097c-0.057-0.1 0.215-0.451 0.817-1.054 0.609-0.609 0.914-1.057 0.914-1.344 0-0.208-0.036-0.333-0.108-0.376-0.072-0.050-0.276-0.075-0.612-0.075-0.488 0-1.169 0.143-2.043 0.43-0.724 0.229-1.914 0.742-3.57 1.538s-3.072 1.534-4.247 2.215c-1.326 0.767-3.021 1.864-5.086 3.29s-3.341 2.383-3.828 2.871c-0.179 0.179-0.538 0.943-1.075 2.291-0.192 0.515-0.294 0.764-0.398 1.011l0.097-0.259c-0.062 0.147-0.128 0.336-0.184 0.53l-0.010 0.040c-0.090 0.316-0.137 0.466-0.187 0.616l0.047-0.165c-0.014 0.057-0.014 0.169 0 0.333 0.014 0.158 0.032 0.255 0.054 0.29 0.029 0.036 0.097 0.126 0.204 0.269s0.197 0.247 0.269 0.312c0.072 0.057 0.204 0.175 0.398 0.355 1.197 1.104 2.649 1.717 4.355 1.839 1.713 0.122 3.774-0.237 6.183-1.075 1.097-0.387 1.81-0.609 2.14-0.667 0.207-0.043 0.333-0.046 0.376-0.010 0.050 0.029 0.061 0.125 0.032 0.29-0.022 0.151-0.118 0.287-0.29 0.409-0.165 0.115-0.484 0.265-0.957 0.451-2.696 1.068-5.122 1.545-7.28 1.43-2.151-0.122-3.9-0.831-5.247-2.129l-0.839-0.796-0.441 1.108c-0.982 2.437-1.677 4.48-2.087 6.129s-0.437 2.541-0.086 2.677c0.072 0.022 0.133 0.072 0.183 0.151s0.076 0.161 0.076 0.247c0 0.143-0.083 0.24-0.248 0.29-0.158 0.057-0.333 0.057-0.526 0-0.186-0.050-0.316-0.147-0.387-0.29-0.143-0.273-0.193-0.742-0.15-1.409s0.172-1.401 0.387-2.204c0.208-0.789 0.559-1.889 1.054-3.301 0.502-1.419 0.91-2.484 1.226-3.193 0.229-0.566 0.341-1.19 0.333-1.871-0.021-0.595 0.065-1.125 0.258-1.591 0.201-0.466 0.566-1.022 1.097-1.667 0.194-0.237 0.409-0.566 0.645-0.989 0.202-0.35 0.401-0.764 0.569-1.194l0.022-0.064c0.358-0.91 1.036-2.853 2.032-5.828 1.004-2.975 1.649-4.961 1.936-5.957 0.237-0.817 0.427-1.344 0.57-1.58s0.308-0.298 0.495-0.183c0.179 0.115 0.147 0.613-0.097 1.495-0.236 0.875-0.921 3.007-2.053 6.398 0.389-1.505-0.073-0.14-0.527 1.228l-0.828 2.879c-0.365 1.125-0.541 1.688-0.527 1.688 0.029 0 0.448-0.298 1.258-0.893 2.43-1.785 5.075-3.469 7.936-5.054 2.86-1.591 5.175-2.663 6.946-3.215 0.667-0.208 1.269-0.319 1.806-0.333 0.538-0.022 0.953 0.046 1.247 0.204 0.301 0.158 0.502 0.373 0.602 0.645s0.057 0.609-0.129 1.011c-0.186 0.394-0.505 0.814-0.957 1.258-0.337 0.33-0.652 0.548-0.946 0.656-0.294 0.1-0.498 0.064-0.613-0.108zM24.494 19.559c0.072 0.179 0.003 0.369-0.204 0.57-0.201 0.201-0.763 0.627-1.688 1.28-1.047 0.745-1.846 1.218-2.398 1.419s-1.064 0.204-1.537 0.011c-0.43-0.172-0.656-0.581-0.678-1.226-0.021-0.652 0.165-1.394 0.559-2.226 0.251-0.531 0.502-0.957 0.753-1.28 0.258-0.33 0.563-0.552 0.914-0.667 0.365-0.115 0.659-0.050 0.882 0.194 0.23 0.237 0.312 0.516 0.247 0.839-0.065 0.344-0.305 0.742-0.721 1.193-0.416 0.445-0.774 0.667-1.075 0.667-0.237 0-0.391 0.039-0.462 0.118-0.072 0.072-0.143 0.283-0.215 0.634-0.064 0.337-0.025 0.613 0.118 0.828 0.115 0.143 0.218 0.222 0.312 0.236 0.093 0.007 0.29-0.032 0.591-0.118 0.409-0.115 1.201-0.599 2.376-1.452 0.255-0.192 0.601-0.44 0.953-0.68l0.112-0.072c0.258-0.179 0.473-0.305 0.645-0.376 0.172-0.079 0.29-0.104 0.355-0.075 0.065 0.021 0.118 0.083 0.161 0.182zM19.881 18.753c-0.258 0.373-0.337 0.584-0.237 0.634 0.072 0.021 0.197-0.050 0.376-0.215 0.273-0.258 0.409-0.462 0.409-0.613 0-0.193-0.065-0.258-0.194-0.193-0.108 0.050-0.226 0.179-0.355 0.387zM30.095 18.387c0.33-0.122 0.573-0.143 0.731-0.064 0.165 0.072 0.201 0.222 0.107 0.452-0.1 0.265-0.448 0.451-1.043 0.559-0.588 0.108-0.986 0.057-1.194-0.15-0.093-0.093-0.165-0.129-0.215-0.108-0.115 0.043-0.434 0.398-0.957 1.065-0.136 0.179-0.412 0.538-0.828 1.075-0.609 0.81-1.039 1.337-1.29 1.581-0.244 0.237-0.477 0.366-0.699 0.387-0.208 0.022-0.355 0.011-0.441-0.032-0.086-0.050-0.158-0.15-0.215-0.301-0.165-0.494-0.1-1.452 0.194-2.871 0.201-1.025 0.444-1.548 0.731-1.57 0.072 0 0.14 0.032 0.204 0.097 0.072 0.079 0.096 0.233 0.075 0.462-0.014 0.222-0.072 0.602-0.172 1.14-0.050 0.251-0.093 0.462-0.129 0.634-0.029 0.172-0.054 0.337-0.075 0.495-0.022 0.15-0.036 0.272-0.043 0.365-0.007 0.086-0.003 0.161 0.011 0.226 0.014 0.057 0.032 0.089 0.054 0.096 0.029 0.008 0.072-0.003 0.129-0.032 0.057-0.036 0.118-0.086 0.183-0.151 0.316-0.362 0.637-0.762 0.941-1.173l0.037-0.053c0.351-0.473 1.029-1.38 2.032-2.72l1-1.333c0.115-0.151 0.193-0.23 0.236-0.237 0.050-0.014 0.136 0.036 0.258 0.151 0.122 0.122 0.175 0.24 0.161 0.355-0.007 0.115-0.093 0.373-0.258 0.774-0.237 0.574-0.319 0.9-0.247 0.979 0.086 0.086 0.326 0.054 0.721-0.097zM39.438 19.377c0.193-0.022 0.33 0.050 0.408 0.215s0.029 0.355-0.15 0.57c-0.17 0.186-0.324 0.351-0.481 0.513l0.008-0.008c-0.172 0.172-0.462 0.437-0.871 0.796-0.366 0.324-0.766 0.642-1.181 0.938l-0.044 0.030c-0.409 0.279-0.893 0.552-1.452 0.817s-1.1 0.448-1.624 0.548c-0.76 0.143-1.433 0.029-2.022-0.344-0.588-0.38-0.917-0.91-0.989-1.591-0.072-0.717-0.029-1.466 0.129-2.247 0.136-0.66 0.305-1.136 0.505-1.43s0.412-0.369 0.634-0.226c0.1 0.057 0.15 0.194 0.15 0.409 0 0.208-0.046 0.341-0.14 0.398-0.1 0.065-0.215 0.531-0.344 1.398-0.086 0.552-0.129 0.943-0.129 1.172 0.007 0.222 0.065 0.462 0.172 0.721 0.201 0.487 0.591 0.76 1.172 0.817 0.588 0.050 1.201-0.054 1.839-0.312 0.678-0.273 1.263-0.613 1.791-1.023l-0.017 0.012c0.424-0.338 0.792-0.651 1.149-0.975l-0.020 0.018c0.211-0.193 0.533-0.48 0.857-0.767l0.133-0.115c0.244-0.208 0.416-0.319 0.516-0.333zM32.89 16.645c-0.079 0.079-0.179 0.118-0.301 0.118s-0.226-0.040-0.312-0.118c-0.073-0.079-0.118-0.185-0.118-0.302 0-0.003 0-0.007 0-0.010v0c0-0.122 0.040-0.222 0.118-0.301 0.086-0.086 0.19-0.129 0.312-0.129s0.222 0.043 0.301 0.129c0.086 0.079 0.129 0.179 0.129 0.301s-0.043 0.226-0.129 0.312zM48.233 19.592c0.1-0.043 0.197-0.029 0.29 0.043 0.1 0.072 0.154 0.179 0.161 0.323 0.014 0.136-0.043 0.298-0.172 0.484-0.194 0.258-0.566 0.613-1.118 1.065-0.545 0.452-0.914 0.721-1.108 0.807-0.76 0.315-1.43 0.33-2.011 0.043-0.265-0.129-0.494-0.373-0.688-0.731-0.186-0.359-0.319-0.681-0.398-0.968-0.079-0.294-0.125-0.441-0.14-0.441-0.122 0-0.333 0.158-0.635 0.473-0.296 0.31-0.565 0.651-0.801 1.016l-0.016 0.027c-0.652 1.032-1.175 1.584-1.57 1.656-0.194 0.036-0.33-0.057-0.409-0.28-0.050-0.122 0.018-0.785 0.204-1.989s0.373-2.19 0.559-2.957c0.086-0.322 0.208-0.548 0.365-0.677s0.308-0.126 0.452 0.010c0.1 0.1 0.043 0.753-0.172 1.957-0.222 1.219-0.333 1.853-0.333 1.903 0 0.029 0.065-0.036 0.194-0.194 0.086-0.1 0.186-0.23 0.301-0.387 0.319-0.432 0.696-0.799 1.124-1.097l0.016-0.010c0.452-0.315 0.803-0.455 1.054-0.419 0.158 0.021 0.276 0.093 0.355 0.215s0.165 0.373 0.258 0.753c0.244 0.975 0.692 1.462 1.344 1.462 0.258 0 0.552-0.104 0.882-0.312 0.328-0.206 0.613-0.429 0.873-0.679l-0.002 0.002c0.251-0.251 0.488-0.491 0.709-0.721 0.23-0.229 0.373-0.355 0.43-0.376zM71.511 24.537c-0.086 0.036-0.462 0.086-1.129 0.151-0.66 0.057-1.602 0.201-2.828 0.43-1.226 0.222-2.502 0.541-3.828 0.957-1.599 0.502-3.061 1.154-4.387 1.957-1.319 0.81-2.448 1.724-3.387 2.742-0.48 0.53-0.796 0.846-0.946 0.946-0.143 0.107-0.29 0.111-0.441 0.010-0.1-0.064-0.154-0.136-0.161-0.215 0-0.079 0.036-0.212 0.108-0.398 0.279-0.695 0.878-2.101 1.795-4.215 2.007-4.703 3.355-7.95 4.043-9.742 0.695-1.792 1.384-3.828 2.065-6.108 0.559-1.878 0.821-2.853 0.785-2.925-0.014-0.036-0.079 0.032-0.194 0.204l-0.021 0.021c-0.151 0.215-0.316 0.305-0.495 0.269-0.172-0.036-0.258-0.179-0.258-0.43 0-0.093 0.072-0.287 0.215-0.581 0.151-0.301 0.33-0.613 0.538-0.936 0.509-0.846 0.874-1.566 1.097-2.161 0.251-0.638 0.473-0.957 0.667-0.957s0.326 0.057 0.398 0.172c0.1 0.158-0.251 1.674-1.054 4.548-0.796 2.867-1.552 5.33-2.269 7.387-0.566 1.62-1.298 3.48-2.194 5.581-2.158 5.125-3.237 7.713-3.237 7.764 0 0.014 0.054-0.014 0.161-0.086s0.258-0.179 0.452-0.323c0.24-0.164 0.439-0.312 0.633-0.468l-0.020 0.016c0.996-0.745 2.448-1.494 4.355-2.247 1.914-0.753 3.473-1.244 4.678-1.473 0.476-0.1 1.168-0.214 1.867-0.305l0.166-0.018c0.724-0.1 1.348-0.179 1.871-0.236 0.53-0.057 0.81-0.089 0.839-0.097 0.179-0.036 0.308 0 0.387 0.107 0.079 0.1 0.089 0.219 0.032 0.355-0.050 0.136-0.151 0.237-0.301 0.301zM74.951 20.516c0.703-0.76 1.122-1.032 1.258-0.817 0.043 0.072 0.065 0.19 0.065 0.355s-0.175 0.452-0.527 0.86c-0.349 0.413-0.722 0.783-1.125 1.117l-0.015 0.012c-0.408 0.337-0.695 0.505-0.86 0.505-0.451 0-0.745-0.193-0.882-0.58s-0.108-0.936 0.086-1.645c0.229-0.803 0.147-0.899-0.247-0.29-0.093 0.143-0.201 0.322-0.323 0.537-0.767 1.376-1.373 2.183-1.817 2.42-0.215 0.122-0.362 0.186-0.441 0.193-0.072 0-0.226-0.046-0.462-0.14-0.251-0.1-0.412-0.316-0.484-0.645-0.072-0.337-0.072-0.889 0-1.656 0.165-1.878 0.43-3.086 0.796-3.624 0.165-0.244 0.33-0.283 0.495-0.118 0.136 0.136 0.115 0.638-0.065 1.505-0.105 0.444-0.214 1.047-0.298 1.657l-0.013 0.118c-0.079 0.588-0.118 1.050-0.118 1.387 0 0.33 0.036 0.513 0.108 0.548 0.279 0 0.943-0.932 1.989-2.795 0.473-0.832 0.867-1.434 1.183-1.806 0.315-0.38 0.595-0.57 0.839-0.57 0.273 0 0.419 0.165 0.441 0.495s-0.082 0.86-0.312 1.591c-0.437 1.433-0.606 2.226-0.505 2.376 0.093 0.136 0.427-0.108 1-0.731 0.072-0.079 0.15-0.165 0.236-0.258zM82.348 19.086c0.143-0.036 0.24 0 0.29 0.107 0.057 0.108 0.065 0.233 0.022 0.376-0.036 0.143-0.1 0.244-0.194 0.301-0.072 0.043-0.183 0.083-0.333 0.118s-0.416 0.118-0.796 0.247c-0.373 0.129-0.824 0.308-1.355 0.538-0.781 0.337-1.308 0.591-1.581 0.764-0.265 0.165-0.502 0.394-0.71 0.688-0.337 0.473-0.681 0.785-1.032 0.936-0.344 0.143-0.674 0.118-0.989-0.076-0.201-0.129-0.344-0.287-0.43-0.473s-0.115-0.369-0.086-0.548c0.029-0.186 0.057-0.33 0.086-0.43 0.036-0.1 0.072-0.183 0.108-0.247 0.072-0.122 0.169-0.24 0.29-0.355 0.122-0.122 0.233-0.204 0.333-0.247 0.251-0.1 0.376-0.276 0.376-0.527 0.007-0.273 0.183-0.695 0.527-1.269 0.351-0.573 0.667-0.96 0.946-1.161 0.387-0.28 0.703-0.43 0.946-0.452 0.251-0.022 0.466 0.072 0.645 0.28 0.108 0.122 0.179 0.218 0.215 0.29 0.043 0.065 0.075 0.19 0.097 0.376s-0.007 0.409-0.086 0.667c-0.036 0.165-0.090 0.337-0.161 0.516-0.065 0.179-0.118 0.319-0.161 0.419s-0.064 0.154-0.064 0.161c0.007 0.007 0.236-0.065 0.688-0.215l1.451-0.484c0.523-0.172 0.842-0.273 0.957-0.301zM76.671 22.065c0.143-0.151 0.229-0.251 0.258-0.301s0.032-0.093 0.011-0.129c-0.022-0.036-0.097-0.086-0.226-0.151-0.136-0.079-0.24-0.107-0.312-0.086-0.064 0.014-0.132 0.089-0.204 0.226-0.065 0.129-0.115 0.258-0.151 0.387-0.029 0.129-0.036 0.236-0.021 0.322 0.021 0.086 0.064 0.129 0.129 0.129 0.107 0 0.279-0.132 0.516-0.398zM78.176 19.925c0.337-0.58 0.505-0.996 0.505-1.247 0-0.165-0.018-0.258-0.054-0.279s-0.125 0.011-0.269 0.097c-0.186 0.122-0.43 0.441-0.731 0.957s-0.452 0.878-0.452 1.086c0 0.251 0.093 0.33 0.28 0.236 0.222-0.108 0.462-0.391 0.721-0.85z"></path>
</symbol>
</defs>
</svg>
